<svg width="512" height="512" viewBox="0 0 512 512" xmlns="http://www.w3.org/2000/svg">
  <rect width="512" height="512" fill="transparent"/>

  <!-- S principal -->
  <text x="95" y="385"
        font-family="Arial Black, Montserrat, sans-serif"
        font-size="390"
        font-weight="900"
        fill="#000000">S</text>

  <!-- Detalles tecnologicos -->
  <g stroke="#ffffff" stroke-width="8" stroke-linecap="round" stroke-linejoin="round" fill="none">
    <path d="M155 135 H230 L255 105 H340"/>
    <path d="M150 170 H215 L240 145 H300"/>
    <path d="M145 205 H205 L230 225 H285"/>
    <path d="M160 325 H255 L280 345 H360"/>
    <path d="M150 355 H240 L265 375 H335"/>
  </g>

  <!-- Nodos -->
  <g fill="#ffffff">
    <circle cx="155" cy="135" r="9"/>
    <circle cx="150" cy="170" r="9"/>
    <circle cx="145" cy="205" r="9"/>
    <rect x="285" y="315" width="18" height="18"/>
    <rect x="315" y="315" width="18" height="18"/>
    <rect x="345" y="315" width="18" height="18"/>
    <rect x="190" y="345" width="18" height="18"/>
  </g>

  <!-- Circulo IA dentro de la S -->
  <circle cx="332" cy="318" r="72" fill="#000000" stroke="#ffffff" stroke-width="8"/>

  <!-- Texto IA -->
  <text x="332" y="345"
        text-anchor="middle"
        font-family="Arial Black, Montserrat, sans-serif"
        font-size="78"
        font-weight="900"
        fill="#ffffff">IA</text>
</svg>
